<svg width="24" height="24" viewBox="0 0 24 24" fill="none" xmlns="http://www.w3.org/2000/svg">
<path d="M8.16667 14H19.8333L15.8083 8.75L13.125 12.25L11.3167 9.91667L8.16667 14ZM7 18.6667C6.35833 18.6667 5.80903 18.4382 5.35208 17.9813C4.89514 17.5243 4.66667 16.975 4.66667 16.3333V2.33333C4.66667 1.69167 4.89514 1.14236 5.35208 0.685417C5.80903 0.228472 6.35833 0 7 0H21C21.6417 0 22.191 0.228472 22.6479 0.685417C23.1049 1.14236 23.3333 1.69167 23.3333 2.33333V16.3333C23.3333 16.975 23.1049 17.5243 22.6479 17.9813C22.191 18.4382 21.6417 18.6667 21 18.6667H7ZM7 16.3333H21V2.33333H7V16.3333ZM2.33333 23.3333C1.69167 23.3333 1.14236 23.1049 0.685417 22.6479C0.228472 22.191 0 21.6417 0 21V4.66667H2.33333V21H18.6667V23.3333H2.33333ZM7 2.33333V16.3333V2.33333Z" fill="#0D631B"/>
</svg>
