<svg width="20" height="16" viewBox="0 0 20 16" fill="none" xmlns="http://www.w3.org/2000/svg">
<path d="M0 16V14H5.75C5.38333 12.5833 4.6875 11.3625 3.6625 10.3375C2.6375 9.3125 1.41667 8.61667 0 8.25C0.333333 8.16667 0.6625 8.10417 0.9875 8.0625C1.3125 8.02083 1.65 8 2 8C4.23333 8 6.125 8.775 7.675 10.325C9.225 11.875 10 13.7667 10 16H0ZM12 16C12 15.3 11.925 14.6042 11.775 13.9125C11.625 13.2208 11.4083 12.5583 11.125 11.925C11.825 10.7417 12.7792 9.79167 13.9875 9.075C15.1958 8.35833 16.5333 8 18 8C18.35 8 18.6875 8.02083 19.0125 8.0625C19.3375 8.10417 19.6667 8.16667 20 8.25C18.5833 8.61667 17.3667 9.3125 16.35 10.3375C15.3333 11.3625 14.6333 12.5833 14.25 14H20V16H12ZM10 10.025C10 8.94167 10.2 7.925 10.6 6.975C11 6.025 11.55 5.1875 12.25 4.4625C12.95 3.7375 13.7708 3.15833 14.7125 2.725C15.6542 2.29167 16.6583 2.05833 17.725 2.025C16.7917 2.60833 15.975 3.325 15.275 4.175C14.575 5.025 14.0333 5.975 13.65 7.025C12.9167 7.375 12.2458 7.80417 11.6375 8.3125C11.0292 8.82083 10.4833 9.39167 10 10.025ZM8.175 8.15C7.975 8 7.775 7.85833 7.575 7.725C7.375 7.59167 7.16667 7.45833 6.95 7.325C6.95 7.225 6.95833 7.12083 6.975 7.0125C6.99167 6.90417 7 6.8 7 6.7C7 5.43333 6.8 4.23333 6.4 3.1C6 1.96667 5.43333 0.933333 4.7 0C5.8 0.45 6.75417 1.09583 7.5625 1.9375C8.37083 2.77917 8.99167 3.75 9.425 4.85C9.125 5.35 8.86667 5.87917 8.65 6.4375C8.43333 6.99583 8.275 7.56667 8.175 8.15Z" fill="#0D631B"/>
</svg>
