<svg width="18" height="18" viewBox="0 0 18 18" fill="none" xmlns="http://www.w3.org/2000/svg">
<path d="M2 18C1.45 18 0.979167 17.8042 0.5875 17.4125C0.195833 17.0208 0 16.55 0 16V12H2V16H6V18H2ZM12 18V16H16V12H18V16C18 16.55 17.8042 17.0208 17.4125 17.4125C17.0208 17.8042 16.55 18 16 18H12ZM0 6V2C0 1.45 0.195833 0.979167 0.5875 0.5875C0.979167 0.195833 1.45 0 2 0H6V2H2V6H0ZM16 6V2H12V0H16C16.55 0 17.0208 0.195833 17.4125 0.5875C17.8042 0.979167 18 1.45 18 2V6H16ZM9 14C7.61667 14 6.4375 13.5125 5.4625 12.5375C4.4875 11.5625 4 10.3833 4 9C4 7.61667 4.4875 6.4375 5.4625 5.4625C6.4375 4.4875 7.61667 4 9 4C10.3833 4 11.5625 4.4875 12.5375 5.4625C13.5125 6.4375 14 7.61667 14 9C14 10.3833 13.5125 11.5625 12.5375 12.5375C11.5625 13.5125 10.3833 14 9 14Z" fill="white"/>
</svg>
