<svg width="22" height="27" viewBox="0 0 22 27" fill="none" xmlns="http://www.w3.org/2000/svg">
<path d="M10.6667 26.6667C7.57778 25.8889 5.02778 24.1167 3.01667 21.35C1.00556 18.5833 0 15.5111 0 12.1333V4L10.6667 0L21.3333 4V12.1333C21.3333 15.5111 20.3278 18.5833 18.3167 21.35C16.3056 24.1167 13.7556 25.8889 10.6667 26.6667ZM8 18.6667H13.3333C13.7111 18.6667 14.0278 18.5389 14.2833 18.2833C14.5389 18.0278 14.6667 17.7111 14.6667 17.3333V13.3333C14.6667 12.9556 14.5389 12.6389 14.2833 12.3833C14.0278 12.1278 13.7111 12 13.3333 12V10.6667C13.3333 9.93333 13.0722 9.30556 12.55 8.78333C12.0278 8.26111 11.4 8 10.6667 8C9.93333 8 9.30556 8.26111 8.78333 8.78333C8.26111 9.30556 8 9.93333 8 10.6667V12C7.62222 12 7.30556 12.1278 7.05 12.3833C6.79444 12.6389 6.66667 12.9556 6.66667 13.3333V17.3333C6.66667 17.7111 6.79444 18.0278 7.05 18.2833C7.30556 18.5389 7.62222 18.6667 8 18.6667ZM9.33333 12V10.6667C9.33333 10.2889 9.46111 9.97222 9.71667 9.71667C9.97222 9.46111 10.2889 9.33333 10.6667 9.33333C11.0444 9.33333 11.3611 9.46111 11.6167 9.71667C11.8722 9.97222 12 10.2889 12 10.6667V12H9.33333Z" fill="#CBFFC2"/>
</svg>
