<svg width="14" height="14" viewBox="0 0 14 14" fill="none" xmlns="http://www.w3.org/2000/svg">
<path d="M6.66667 6.66667C5.75 6.66667 4.96528 6.34028 4.3125 5.6875C3.65972 5.03472 3.33333 4.25 3.33333 3.33333C3.33333 2.41667 3.65972 1.63194 4.3125 0.979167C4.96528 0.326389 5.75 0 6.66667 0C7.58333 0 8.36806 0.326389 9.02083 0.979167C9.67361 1.63194 10 2.41667 10 3.33333C10 4.25 9.67361 5.03472 9.02083 5.6875C8.36806 6.34028 7.58333 6.66667 6.66667 6.66667ZM0 13.3333V11C0 10.5278 0.118056 10.0938 0.354167 9.69792C0.590278 9.30208 0.916667 9 1.33333 8.79167C2.16667 8.375 3.03125 8.05556 3.92708 7.83333C4.82292 7.61111 5.73611 7.5 6.66667 7.5C7.59722 7.5 8.51042 7.61111 9.40625 7.83333C10.3021 8.05556 11.1667 8.375 12 8.79167C12.4167 9 12.7431 9.30208 12.9792 9.69792C13.2153 10.0938 13.3333 10.5278 13.3333 11V13.3333H0ZM6.66667 5C7.125 5 7.51736 4.83681 7.84375 4.51042C8.17014 4.18403 8.33333 3.79167 8.33333 3.33333C8.33333 2.875 8.17014 2.48264 7.84375 2.15625C7.51736 1.82986 7.125 1.66667 6.66667 1.66667C6.20833 1.66667 5.81597 1.82986 5.48958 2.15625C5.16319 2.48264 5 2.875 5 3.33333C5 3.79167 5.16319 4.18403 5.48958 4.51042C5.81597 4.83681 6.20833 5 6.66667 5ZM10 9.75V11.6667H11.6667V11C11.6667 10.8472 11.6319 10.7083 11.5625 10.5833C11.4931 10.4583 11.3889 10.3611 11.25 10.2917C11.0556 10.1806 10.8507 10.0799 10.6354 9.98958C10.4201 9.89931 10.2083 9.81944 10 9.75ZM5 9.3125V10.4167H8.33333V9.3125C8.05556 9.25694 7.77778 9.21875 7.5 9.19792C7.22222 9.17708 6.94444 9.16667 6.66667 9.16667C6.38889 9.16667 6.11111 9.17708 5.83333 9.19792C5.55556 9.21875 5.27778 9.25694 5 9.3125ZM1.66667 11.6667H3.33333V9.75C3.125 9.81944 2.91319 9.89931 2.69792 9.98958C2.48264 10.0799 2.27778 10.1806 2.08333 10.2917C1.94444 10.3611 1.84028 10.4583 1.77083 10.5833C1.70139 10.7083 1.66667 10.8472 1.66667 11V11.6667ZM10 11.6667C9.72222 11.6667 9.44444 11.6667 9.16667 11.6667C8.88889 11.6667 8.61111 11.6667 8.33333 11.6667H5C4.72222 11.6667 4.44444 11.6667 4.16667 11.6667C3.88889 11.6667 3.61111 11.6667 3.33333 11.6667H10Z" fill="#0D631B"/>
</svg>
