<svg xmlns="http://www.w3.org/2000/svg" viewBox="0 0 1600 1000" role="img" aria-labelledby="title desc">
  <title id="title">Farm field landscape</title>
  <desc id="desc">A stylized farm landscape with fields, hills, and a bright sky.</desc>
  <rect width="1600" height="1000" fill="#b7d7df"/>
  <circle cx="1300" cy="170" r="92" fill="#f4c95d"/>
  <path d="M0 490 C220 380 390 390 590 470 C810 560 980 440 1160 390 C1340 340 1460 390 1600 330 L1600 1000 L0 1000 Z" fill="#6f9d69"/>
  <path d="M0 575 C250 490 470 510 690 585 C900 655 1110 570 1300 520 C1430 486 1530 505 1600 470 L1600 1000 L0 1000 Z" fill="#497d55"/>
  <path d="M0 690 L1600 565 L1600 1000 L0 1000 Z" fill="#d9a64f"/>
  <path d="M165 1000 L645 640 L760 630 L415 1000 Z" fill="#8f6b32"/>
  <path d="M455 1000 L855 620 L965 610 L715 1000 Z" fill="#b98238"/>
  <path d="M760 1000 L1075 600 L1188 590 L1005 1000 Z" fill="#8f6b32"/>
  <path d="M1055 1000 L1285 585 L1390 575 L1280 1000 Z" fill="#b98238"/>
  <path d="M1350 1000 L1500 565 L1600 555 L1600 1000 Z" fill="#8f6b32"/>
  <path d="M0 820 C250 775 540 762 790 805 C1070 854 1330 840 1600 770 L1600 1000 L0 1000 Z" fill="#2f6f4e"/>
  <path d="M310 595 L415 515 L522 595 Z" fill="#f7f7f2"/>
  <rect x="342" y="595" width="148" height="96" fill="#8f4e31"/>
  <path d="M330 595 L416 530 L505 595 Z" fill="#5b3429"/>
  <rect x="396" y="632" width="38" height="59" fill="#2f2933"/>
</svg>
